{"title":"Make-Out With Violence [2008] The Deagol Brothers.avi","uid":8162341,"size":1462473964,"categoryP":"video","categoryS":"movies","magnet":"?xt=urn:btih:a29cbd25190cb8a26705424d8f419010c9c74e7c&amp;dn=Make-Out+With+Violence+%5B2008%5D+The+Deagol+Brothers.avi&amp;tr=udp%3A%2F%2Ftracker.openbittorrent.com%3A80&amp;tr=udp%3A%2F%2Fopen.demonii.com%3A1337&amp;tr=udp%3A%2F%2Ftracker.coppersurfer.tk%3A6969&amp;tr=udp%3A%2F%2Fexodus.desync.com%3A6969","seeders":2,"leechers":1,"uploader":"yousef86","files":-1,"time":1361232172,"description":"::Release Info::\n================\nRelease Title: Make-Out With Violence [2008] The Deagol Brothers\n\n::IMDB and TMDB Info::\n======================\nTMDB Link: www.themoviedb.org/movie/51122\nIMDB Link: www.imdb.com/title/tt1284485\nStoryline: A genre-bending tale of a boy trying to fulfill his unrequited love for a girl who has risen from the dead. It tells the story of twin brothers Patrick and Carol Darling, newly graduated from high school and struggling to come to terms with the mysterious disappearance of their friend, the bright and beautiful Wendy Hearst. When a drive through the countryside surrounding their suburban community leads to the discovery of Wendy's mysteriously animated corpse, the boys secretly transport the un-dead Wendy to an empty house in hopes of somehow bringing her back to life. As the sweltering summer pushes on, they must maintain the appearance of normalcy for their friends and family as they search for ways to revive the Wendy they once knew, or, failing that, to satisfy their own quests for love amongst the living and the dead.\nGenre: Comedy | Fantasy | Horror | Romance\nRelease date: 12/04/2008\n\n::Actors::\n==========\nEric Lehning ... Patrick\nCody DeVos ... Carol\nLeah High ... Addy\nBrett Miller ... Beetle\nTia Shearer ... Anne Haran\nJordan Lehning ... Rody\nJosh Duensing ... Brian\nShellie Marie Shartzer ... Wendy\nAmanda Bailey ... Donna Carrigan\nDavid Carney ... Motorcyclist\n\nGeneral\n=======\nComplete name : Make-Out With Violence [2008] The Deagol Brothers.avi\nFormat : AVI\nFormat/Info : Audio Video Interleave\nFormat profile : OpenDML\nFile size : 1.36 GiB\nDuration : 1h 45mn\nOverall bit rate : 1 843 Kbps\nWriting application : MEncoder Sherpya-SVN-r30075-4.2.5\nWriting library : MPlayer\n\nVideo\n=====\nID : 0\nFormat : MPEG-4 Visual\nCodec ID : XVID\nCodec ID/Hint : XviD\nDuration : 1h 45mn\nBit rate : 85.1 Kbps\nWidth : 720 pixels\nHeight : 480 pixels\nDisplay aspect ratio : 3:2\nFrame rate : 29.970 fps\nStandard : NTSC\nColor space : YUV\nChroma subsampling : 4:2:0\nCompression mode : Lossy\nBits/(Pixel*Frame) : 0.008\nStream size : 64.4 MiB (5%)\n\nAudio\n=====\nID : 1\nFormat : MPEG Audio\nCodec ID : 55\nCodec ID/Hint : MP3\nDuration : 1h 45mn\nBit rate : 123 Kbps\nChannel(s) : 2 channels\nSampling rate : 44.1 KHz\nCompression mode : Lossy\nStream size : 93.0 MiB (7%)\nAlignment : Aligned on interleaves","torrent":{"xt":"urn:btih:a29cbd25190cb8a26705424d8f419010c9c74e7c","amp;dn":"Make-Out+With+Violence+%5B2008%5D+The+Deagol+Brothers.avi","amp;tr":["udp%3A%2F%2Ftracker.openbittorrent.com%3A80","udp%3A%2F%2Fopen.demonii.com%3A1337","udp%3A%2F%2Ftracker.coppersurfer.tk%3A6969","udp%3A%2F%2Fexodus.desync.com%3A6969"],"infoHash":"a29cbd25190cb8a26705424d8f419010c9c74e7c","infoHashBuffer":{"type":"Buffer","data":[162,156,189,37,25,12,184,162,103,5,66,77,143,65,144,16,201,199,78,124]},"announce":[],"urlList":[]}}